<svg width="1606mm" height="803mm" viewBox="0 0 1606 803" xmlns="http://www.w3.org/2000/svg" version="1.1" preserveAspectRatio="xMidYMid meet"><g id="svgGroup" stroke-linecap="round" fill-rule="evenodd" font-size="9pt" stroke="#000" stroke-width="0.25mm" fill="none" style="stroke:#000;stroke-width:0.25mm;fill:none"><path d="M 0 403 L 0 467.063 L 5 467.063 L 5 521.438 L 0 521.438 L 0 575.813 L 5 575.813 L 5 630.188 L 0 630.188 L 0 684.563 L 5 684.563 L 5 738.938 L 0 738.938 L 0 793.313 L 0 803 L 55.313 803 L 55.313 798 L 109.688 798 L 109.688 803 L 164.063 803 L 164.063 798 L 218.438 798 L 218.438 803 L 272.813 803 L 272.813 798 L 327.188 798 L 327.188 803 L 381.563 803 L 381.563 798 L 435.938 798 L 435.938 803 L 490.313 803 L 490.313 798 L 544.688 798 L 544.688 803 L 600 803 L 600 738.938 L 595 738.938 L 595 684.563 L 600 684.563 L 600 630.188 L 595 630.188 L 595 575.813 L 600 575.813 L 600 521.438 L 595 521.438 L 595 467.063 L 600 467.063 L 600 412.688 L 600 403 L 544.688 403 L 544.688 408 L 490.313 408 L 490.313 403 L 435.938 403 L 435.938 408 L 381.563 408 L 381.563 403 L 327.188 403 L 327.188 408 L 272.813 408 L 272.813 403 L 218.438 403 L 218.438 408 L 164.063 408 L 164.063 403 L 109.688 403 L 109.688 408 L 55.313 408 L 55.313 403 L 0 403 Z" id="front_outsideCutPath" stroke="#FF0000" stroke-width="0.1" style="stroke:#FF0000;stroke-width:0.1" vector-effect="non-scaling-stroke"/><path d="M 608 403 L 608 467.063 L 603 467.063 L 603 521.438 L 608 521.438 L 608 575.813 L 603 575.813 L 603 630.188 L 608 630.188 L 608 684.563 L 603 684.563 L 603 738.938 L 608 738.938 L 608 793.313 L 608 803 L 667.063 803 L 667.063 798 L 721.438 798 L 721.438 803 L 775.813 803 L 775.813 798 L 830.188 798 L 830.188 803 L 884.563 803 L 884.563 798 L 938.938 798 L 938.938 803 L 993.313 803 L 998 803 L 998 738.938 L 1003 738.938 L 1003 684.563 L 998 684.563 L 998 630.188 L 1003 630.188 L 1003 575.813 L 998 575.813 L 998 521.438 L 1003 521.438 L 1003 467.063 L 998 467.063 L 998 412.688 L 998 403 L 938.938 403 L 938.938 408 L 884.563 408 L 884.563 403 L 830.188 403 L 830.188 408 L 775.813 408 L 775.813 403 L 721.438 403 L 721.438 408 L 667.063 408 L 667.063 403 L 612.688 403 L 608 403 Z" id="left_outsideCutPath" stroke="#FF0000" stroke-width="0.1" style="stroke:#FF0000;stroke-width:0.1" vector-effect="non-scaling-stroke"/><path d="M 1011 408 L 1011 467.063 L 1006 467.063 L 1006 521.438 L 1011 521.438 L 1011 575.813 L 1006 575.813 L 1006 630.188 L 1011 630.188 L 1011 684.563 L 1006 684.563 L 1006 738.938 L 1011 738.938 L 1011 793.313 L 1011 798 L 1061.313 798 L 1061.313 803 L 1115.688 803 L 1115.688 798 L 1170.063 798 L 1170.063 803 L 1224.438 803 L 1224.438 798 L 1278.813 798 L 1278.813 803 L 1333.188 803 L 1333.188 798 L 1387.563 798 L 1387.563 803 L 1441.938 803 L 1441.938 798 L 1496.313 798 L 1496.313 803 L 1550.688 803 L 1550.688 798 L 1601 798 L 1601 738.938 L 1606 738.938 L 1606 684.563 L 1601 684.563 L 1601 630.188 L 1606 630.188 L 1606 575.813 L 1601 575.813 L 1601 521.438 L 1606 521.438 L 1606 467.063 L 1601 467.063 L 1601 412.688 L 1601 408 L 1550.688 408 L 1550.688 403 L 1496.313 403 L 1496.313 408 L 1441.938 408 L 1441.938 403 L 1387.563 403 L 1387.563 408 L 1333.188 408 L 1333.188 403 L 1278.813 403 L 1278.813 408 L 1224.438 408 L 1224.438 403 L 1170.063 403 L 1170.063 408 L 1115.688 408 L 1115.688 403 L 1061.313 403 L 1061.313 408 L 1011 408 Z" id="top_outsideCutPath" stroke="#FF0000" stroke-width="0.1" style="stroke:#FF0000;stroke-width:0.1" vector-effect="non-scaling-stroke"/><path d="M 0 0 L 0 64.063 L 5 64.063 L 5 118.438 L 0 118.438 L 0 172.813 L 5 172.813 L 5 227.188 L 0 227.188 L 0 281.563 L 5 281.563 L 5 335.938 L 0 335.938 L 0 390.313 L 0 400 L 55.313 400 L 55.313 395 L 109.688 395 L 109.688 400 L 164.063 400 L 164.063 395 L 218.438 395 L 218.438 400 L 272.813 400 L 272.813 395 L 327.188 395 L 327.188 400 L 381.563 400 L 381.563 395 L 435.938 395 L 435.938 400 L 490.313 400 L 490.313 395 L 544.688 395 L 544.688 400 L 600 400 L 600 335.938 L 595 335.938 L 595 281.563 L 600 281.563 L 600 227.188 L 595 227.188 L 595 172.813 L 600 172.813 L 600 118.438 L 595 118.438 L 595 64.063 L 600 64.063 L 600 9.688 L 600 0 L 544.688 0 L 544.688 5 L 490.313 5 L 490.313 0 L 435.938 0 L 435.938 5 L 381.563 5 L 381.563 0 L 327.188 0 L 327.188 5 L 272.813 5 L 272.813 0 L 218.438 0 L 218.438 5 L 164.063 5 L 164.063 0 L 109.688 0 L 109.688 5 L 55.313 5 L 55.313 0 L 0 0 Z" id="back_outsideCutPath" stroke="#FF0000" stroke-width="0.1" style="stroke:#FF0000;stroke-width:0.1" vector-effect="non-scaling-stroke"/><path d="M 608 0 L 608 64.063 L 603 64.063 L 603 118.438 L 608 118.438 L 608 172.813 L 603 172.813 L 603 227.188 L 608 227.188 L 608 281.563 L 603 281.563 L 603 335.938 L 608 335.938 L 608 390.313 L 608 400 L 667.063 400 L 667.063 395 L 721.438 395 L 721.438 400 L 775.813 400 L 775.813 395 L 830.188 395 L 830.188 400 L 884.563 400 L 884.563 395 L 938.938 395 L 938.938 400 L 993.313 400 L 998 400 L 998 335.938 L 1003 335.938 L 1003 281.563 L 998 281.563 L 998 227.188 L 1003 227.188 L 1003 172.813 L 998 172.813 L 998 118.438 L 1003 118.438 L 1003 64.063 L 998 64.063 L 998 9.688 L 998 0 L 938.938 0 L 938.938 5 L 884.563 5 L 884.563 0 L 830.188 0 L 830.188 5 L 775.813 5 L 775.813 0 L 721.438 0 L 721.438 5 L 667.063 5 L 667.063 0 L 612.688 0 L 608 0 Z" id="right_outsideCutPath" stroke="#FF0000" stroke-width="0.1" style="stroke:#FF0000;stroke-width:0.1" vector-effect="non-scaling-stroke"/><path d="M 1011 5 L 1011 64.063 L 1006 64.063 L 1006 118.438 L 1011 118.438 L 1011 172.813 L 1006 172.813 L 1006 227.188 L 1011 227.188 L 1011 281.563 L 1006 281.563 L 1006 335.938 L 1011 335.938 L 1011 390.313 L 1011 395 L 1061.313 395 L 1061.313 400 L 1115.688 400 L 1115.688 395 L 1170.063 395 L 1170.063 400 L 1224.438 400 L 1224.438 395 L 1278.813 395 L 1278.813 400 L 1333.188 400 L 1333.188 395 L 1387.563 395 L 1387.563 400 L 1441.938 400 L 1441.938 395 L 1496.313 395 L 1496.313 400 L 1550.688 400 L 1550.688 395 L 1601 395 L 1601 335.938 L 1606 335.938 L 1606 281.563 L 1601 281.563 L 1601 227.188 L 1606 227.188 L 1606 172.813 L 1601 172.813 L 1601 118.438 L 1606 118.438 L 1606 64.063 L 1601 64.063 L 1601 9.688 L 1601 5 L 1550.688 5 L 1550.688 0 L 1496.313 0 L 1496.313 5 L 1441.938 5 L 1441.938 0 L 1387.563 0 L 1387.563 5 L 1333.188 5 L 1333.188 0 L 1278.813 0 L 1278.813 5 L 1224.438 5 L 1224.438 0 L 1170.063 0 L 1170.063 5 L 1115.688 5 L 1115.688 0 L 1061.313 0 L 1061.313 5 L 1011 5 Z" id="bottom_outsideCutPath" stroke="#FF0000" stroke-width="0.1" style="stroke:#FF0000;stroke-width:0.1" vector-effect="non-scaling-stroke"/></g></svg>