0
SECTION
2
HEADER
9
$INSUNITS
70
4
0
ENDSEC
0
SECTION
2
TABLES
0
TABLE
2
LTYPE
0
LTYPE
72
65
70
64
2
CONTINUOUS
3
______
73
0
40
0
0
ENDTAB
0
TABLE
2
LAYER
0
ENDTAB
0
ENDSEC
0
SECTION
2
ENTITIES
0
LINE
8
front_outsideCutPath
10
0
20
403
11
0
21
338.9375
0
LINE
8
front_outsideCutPath
10
0
20
338.9375
11
5
21
338.9375
0
LINE
8
front_outsideCutPath
10
5
20
338.9375
11
5
21
284.5625
0
LINE
8
front_outsideCutPath
10
5
20
284.5625
11
0
21
284.5625
0
LINE
8
front_outsideCutPath
10
0
20
284.5625
11
0
21
230.1875
0
LINE
8
front_outsideCutPath
10
0
20
230.1875
11
5
21
230.1875
0
LINE
8
front_outsideCutPath
10
5
20
230.1875
11
5
21
175.8125
0
LINE
8
front_outsideCutPath
10
5
20
175.8125
11
0
21
175.8125
0
LINE
8
front_outsideCutPath
10
0
20
175.8125
11
0
21
121.4375
0
LINE
8
front_outsideCutPath
10
0
20
121.4375
11
5
21
121.4375
0
LINE
8
front_outsideCutPath
10
5
20
121.4375
11
5
21
67.0625
0
LINE
8
front_outsideCutPath
10
5
20
67.0625
11
0
21
67.0625
0
LINE
8
front_outsideCutPath
10
0
20
67.0625
11
0
21
12.6875
0
LINE
8
front_outsideCutPath
10
0
20
12.6875
11
0
21
3
0
LINE
8
front_outsideCutPath
10
0
20
3
11
55.3125
21
3
0
LINE
8
front_outsideCutPath
10
55.3125
20
3
11
55.3125
21
8
0
LINE
8
front_outsideCutPath
10
55.3125
20
8
11
109.6875
21
8
0
LINE
8
front_outsideCutPath
10
109.6875
20
8
11
109.6875
21
3
0
LINE
8
front_outsideCutPath
10
109.6875
20
3
11
164.0625
21
3
0
LINE
8
front_outsideCutPath
10
164.0625
20
3
11
164.0625
21
8
0
LINE
8
front_outsideCutPath
10
164.0625
20
8
11
218.4375
21
8
0
LINE
8
front_outsideCutPath
10
218.4375
20
8
11
218.4375
21
3
0
LINE
8
front_outsideCutPath
10
218.4375
20
3
11
272.8125
21
3
0
LINE
8
front_outsideCutPath
10
272.8125
20
3
11
272.8125
21
8
0
LINE
8
front_outsideCutPath
10
272.8125
20
8
11
327.1875
21
8
0
LINE
8
front_outsideCutPath
10
327.1875
20
8
11
327.1875
21
3
0
LINE
8
front_outsideCutPath
10
327.1875
20
3
11
381.5625
21
3
0
LINE
8
front_outsideCutPath
10
381.5625
20
3
11
381.5625
21
8
0
LINE
8
front_outsideCutPath
10
381.5625
20
8
11
435.9375
21
8
0
LINE
8
front_outsideCutPath
10
435.9375
20
8
11
435.9375
21
3
0
LINE
8
front_outsideCutPath
10
435.9375
20
3
11
490.3125
21
3
0
LINE
8
front_outsideCutPath
10
490.3125
20
3
11
490.3125
21
8
0
LINE
8
front_outsideCutPath
10
490.3125
20
8
11
544.6875
21
8
0
LINE
8
front_outsideCutPath
10
544.6875
20
8
11
544.6875
21
3
0
LINE
8
front_outsideCutPath
10
544.6875
20
3
11
600
21
3
0
LINE
8
front_outsideCutPath
10
600
20
3
11
600
21
67.0625
0
LINE
8
front_outsideCutPath
10
600
20
67.0625
11
595
21
67.0625
0
LINE
8
front_outsideCutPath
10
595
20
67.0625
11
595
21
121.4375
0
LINE
8
front_outsideCutPath
10
595
20
121.4375
11
600
21
121.4375
0
LINE
8
front_outsideCutPath
10
600
20
121.4375
11
600
21
175.8125
0
LINE
8
front_outsideCutPath
10
600
20
175.8125
11
595
21
175.8125
0
LINE
8
front_outsideCutPath
10
595
20
175.8125
11
595
21
230.1875
0
LINE
8
front_outsideCutPath
10
595
20
230.1875
11
600
21
230.1875
0
LINE
8
front_outsideCutPath
10
600
20
230.1875
11
600
21
284.5625
0
LINE
8
front_outsideCutPath
10
600
20
284.5625
11
595
21
284.5625
0
LINE
8
front_outsideCutPath
10
595
20
284.5625
11
595
21
338.9375
0
LINE
8
front_outsideCutPath
10
595
20
338.9375
11
600
21
338.9375
0
LINE
8
front_outsideCutPath
10
600
20
338.9375
11
600
21
393.3125
0
LINE
8
front_outsideCutPath
10
600
20
393.3125
11
600
21
403
0
LINE
8
front_outsideCutPath
10
600
20
403
11
544.6875
21
403
0
LINE
8
front_outsideCutPath
10
544.6875
20
403
11
544.6875
21
398
0
LINE
8
front_outsideCutPath
10
544.6875
20
398
11
490.3125
21
398
0
LINE
8
front_outsideCutPath
10
490.3125
20
398
11
490.3125
21
403
0
LINE
8
front_outsideCutPath
10
490.3125
20
403
11
435.9375
21
403
0
LINE
8
front_outsideCutPath
10
435.9375
20
403
11
435.9375
21
398
0
LINE
8
front_outsideCutPath
10
435.9375
20
398
11
381.5625
21
398
0
LINE
8
front_outsideCutPath
10
381.5625
20
398
11
381.5625
21
403
0
LINE
8
front_outsideCutPath
10
381.5625
20
403
11
327.1875
21
403
0
LINE
8
front_outsideCutPath
10
327.1875
20
403
11
327.1875
21
398
0
LINE
8
front_outsideCutPath
10
327.1875
20
398
11
272.8125
21
398
0
LINE
8
front_outsideCutPath
10
272.8125
20
398
11
272.8125
21
403
0
LINE
8
front_outsideCutPath
10
272.8125
20
403
11
218.4375
21
403
0
LINE
8
front_outsideCutPath
10
218.4375
20
403
11
218.4375
21
398
0
LINE
8
front_outsideCutPath
10
218.4375
20
398
11
164.0625
21
398
0
LINE
8
front_outsideCutPath
10
164.0625
20
398
11
164.0625
21
403
0
LINE
8
front_outsideCutPath
10
164.0625
20
403
11
109.6875
21
403
0
LINE
8
front_outsideCutPath
10
109.6875
20
403
11
109.6875
21
398
0
LINE
8
front_outsideCutPath
10
109.6875
20
398
11
55.3125
21
398
0
LINE
8
front_outsideCutPath
10
55.3125
20
398
11
55.3125
21
403
0
LINE
8
front_outsideCutPath
10
55.3125
20
403
11
0
21
403
0
LINE
8
left_outsideCutPath
10
608
20
403
11
608
21
338.9375
0
LINE
8
left_outsideCutPath
10
608
20
338.9375
11
603
21
338.9375
0
LINE
8
left_outsideCutPath
10
603
20
338.9375
11
603
21
284.5625
0
LINE
8
left_outsideCutPath
10
603
20
284.5625
11
608
21
284.5625
0
LINE
8
left_outsideCutPath
10
608
20
284.5625
11
608
21
230.1875
0
LINE
8
left_outsideCutPath
10
608
20
230.1875
11
603
21
230.1875
0
LINE
8
left_outsideCutPath
10
603
20
230.1875
11
603
21
175.8125
0
LINE
8
left_outsideCutPath
10
603
20
175.8125
11
608
21
175.8125
0
LINE
8
left_outsideCutPath
10
608
20
175.8125
11
608
21
121.4375
0
LINE
8
left_outsideCutPath
10
608
20
121.4375
11
603
21
121.4375
0
LINE
8
left_outsideCutPath
10
603
20
121.4375
11
603
21
67.0625
0
LINE
8
left_outsideCutPath
10
603
20
67.0625
11
608
21
67.0625
0
LINE
8
left_outsideCutPath
10
608
20
67.0625
11
608
21
12.6875
0
LINE
8
left_outsideCutPath
10
608
20
12.6875
11
608
21
3
0
LINE
8
left_outsideCutPath
10
608
20
3
11
667.0625
21
3
0
LINE
8
left_outsideCutPath
10
667.0625
20
3
11
667.0625
21
8
0
LINE
8
left_outsideCutPath
10
667.0625
20
8
11
721.4375
21
8
0
LINE
8
left_outsideCutPath
10
721.4375
20
8
11
721.4375
21
3
0
LINE
8
left_outsideCutPath
10
721.4375
20
3
11
775.8125
21
3
0
LINE
8
left_outsideCutPath
10
775.8125
20
3
11
775.8125
21
8
0
LINE
8
left_outsideCutPath
10
775.8125
20
8
11
830.1875
21
8
0
LINE
8
left_outsideCutPath
10
830.1875
20
8
11
830.1875
21
3
0
LINE
8
left_outsideCutPath
10
830.1875
20
3
11
884.5625
21
3
0
LINE
8
left_outsideCutPath
10
884.5625
20
3
11
884.5625
21
8
0
LINE
8
left_outsideCutPath
10
884.5625
20
8
11
938.9375
21
8
0
LINE
8
left_outsideCutPath
10
938.9375
20
8
11
938.9375
21
3
0
LINE
8
left_outsideCutPath
10
938.9375
20
3
11
993.3125
21
3
0
LINE
8
left_outsideCutPath
10
993.3125
20
3
11
998
21
3
0
LINE
8
left_outsideCutPath
10
998
20
3
11
998
21
67.0625
0
LINE
8
left_outsideCutPath
10
998
20
67.0625
11
1003
21
67.0625
0
LINE
8
left_outsideCutPath
10
1003
20
67.0625
11
1003
21
121.4375
0
LINE
8
left_outsideCutPath
10
1003
20
121.4375
11
998
21
121.4375
0
LINE
8
left_outsideCutPath
10
998
20
121.4375
11
998
21
175.8125
0
LINE
8
left_outsideCutPath
10
998
20
175.8125
11
1003
21
175.8125
0
LINE
8
left_outsideCutPath
10
1003
20
175.8125
11
1003
21
230.1875
0
LINE
8
left_outsideCutPath
10
1003
20
230.1875
11
998
21
230.1875
0
LINE
8
left_outsideCutPath
10
998
20
230.1875
11
998
21
284.5625
0
LINE
8
left_outsideCutPath
10
998
20
284.5625
11
1003
21
284.5625
0
LINE
8
left_outsideCutPath
10
1003
20
284.5625
11
1003
21
338.9375
0
LINE
8
left_outsideCutPath
10
1003
20
338.9375
11
998
21
338.9375
0
LINE
8
left_outsideCutPath
10
998
20
338.9375
11
998
21
393.3125
0
LINE
8
left_outsideCutPath
10
998
20
393.3125
11
998
21
403
0
LINE
8
left_outsideCutPath
10
998
20
403
11
938.9375
21
403
0
LINE
8
left_outsideCutPath
10
938.9375
20
403
11
938.9375
21
398
0
LINE
8
left_outsideCutPath
10
938.9375
20
398
11
884.5625
21
398
0
LINE
8
left_outsideCutPath
10
884.5625
20
398
11
884.5625
21
403
0
LINE
8
left_outsideCutPath
10
884.5625
20
403
11
830.1875
21
403
0
LINE
8
left_outsideCutPath
10
830.1875
20
403
11
830.1875
21
398
0
LINE
8
left_outsideCutPath
10
830.1875
20
398
11
775.8125
21
398
0
LINE
8
left_outsideCutPath
10
775.8125
20
398
11
775.8125
21
403
0
LINE
8
left_outsideCutPath
10
775.8125
20
403
11
721.4375
21
403
0
LINE
8
left_outsideCutPath
10
721.4375
20
403
11
721.4375
21
398
0
LINE
8
left_outsideCutPath
10
721.4375
20
398
11
667.0625
21
398
0
LINE
8
left_outsideCutPath
10
667.0625
20
398
11
667.0625
21
403
0
LINE
8
left_outsideCutPath
10
667.0625
20
403
11
612.6875
21
403
0
LINE
8
left_outsideCutPath
10
612.6875
20
403
11
608
21
403
0
LINE
8
top_outsideCutPath
10
1011
20
398
11
1011
21
338.9375
0
LINE
8
top_outsideCutPath
10
1011
20
338.9375
11
1006
21
338.9375
0
LINE
8
top_outsideCutPath
10
1006
20
338.9375
11
1006
21
284.5625
0
LINE
8
top_outsideCutPath
10
1006
20
284.5625
11
1011
21
284.5625
0
LINE
8
top_outsideCutPath
10
1011
20
284.5625
11
1011
21
230.1875
0
LINE
8
top_outsideCutPath
10
1011
20
230.1875
11
1006
21
230.1875
0
LINE
8
top_outsideCutPath
10
1006
20
230.1875
11
1006
21
175.8125
0
LINE
8
top_outsideCutPath
10
1006
20
175.8125
11
1011
21
175.8125
0
LINE
8
top_outsideCutPath
10
1011
20
175.8125
11
1011
21
121.4375
0
LINE
8
top_outsideCutPath
10
1011
20
121.4375
11
1006
21
121.4375
0
LINE
8
top_outsideCutPath
10
1006
20
121.4375
11
1006
21
67.0625
0
LINE
8
top_outsideCutPath
10
1006
20
67.0625
11
1011
21
67.0625
0
LINE
8
top_outsideCutPath
10
1011
20
67.0625
11
1011
21
12.6875
0
LINE
8
top_outsideCutPath
10
1011
20
12.6875
11
1011
21
8
0
LINE
8
top_outsideCutPath
10
1011
20
8
11
1061.3125
21
8
0
LINE
8
top_outsideCutPath
10
1061.3125
20
8
11
1061.3125
21
3
0
LINE
8
top_outsideCutPath
10
1061.3125
20
3
11
1115.6875
21
3
0
LINE
8
top_outsideCutPath
10
1115.6875
20
3
11
1115.6875
21
8
0
LINE
8
top_outsideCutPath
10
1115.6875
20
8
11
1170.0625
21
8
0
LINE
8
top_outsideCutPath
10
1170.0625
20
8
11
1170.0625
21
3
0
LINE
8
top_outsideCutPath
10
1170.0625
20
3
11
1224.4375
21
3
0
LINE
8
top_outsideCutPath
10
1224.4375
20
3
11
1224.4375
21
8
0
LINE
8
top_outsideCutPath
10
1224.4375
20
8
11
1278.8125
21
8
0
LINE
8
top_outsideCutPath
10
1278.8125
20
8
11
1278.8125
21
3
0
LINE
8
top_outsideCutPath
10
1278.8125
20
3
11
1333.1875
21
3
0
LINE
8
top_outsideCutPath
10
1333.1875
20
3
11
1333.1875
21
8
0
LINE
8
top_outsideCutPath
10
1333.1875
20
8
11
1387.5625
21
8
0
LINE
8
top_outsideCutPath
10
1387.5625
20
8
11
1387.5625
21
3
0
LINE
8
top_outsideCutPath
10
1387.5625
20
3
11
1441.9375
21
3
0
LINE
8
top_outsideCutPath
10
1441.9375
20
3
11
1441.9375
21
8
0
LINE
8
top_outsideCutPath
10
1441.9375
20
8
11
1496.3125
21
8
0
LINE
8
top_outsideCutPath
10
1496.3125
20
8
11
1496.3125
21
3
0
LINE
8
top_outsideCutPath
10
1496.3125
20
3
11
1550.6875
21
3
0
LINE
8
top_outsideCutPath
10
1550.6875
20
3
11
1550.6875
21
8
0
LINE
8
top_outsideCutPath
10
1550.6875
20
8
11
1601
21
8
0
LINE
8
top_outsideCutPath
10
1601
20
8
11
1601
21
67.0625
0
LINE
8
top_outsideCutPath
10
1601
20
67.0625
11
1606
21
67.0625
0
LINE
8
top_outsideCutPath
10
1606
20
67.0625
11
1606
21
121.4375
0
LINE
8
top_outsideCutPath
10
1606
20
121.4375
11
1601
21
121.4375
0
LINE
8
top_outsideCutPath
10
1601
20
121.4375
11
1601
21
175.8125
0
LINE
8
top_outsideCutPath
10
1601
20
175.8125
11
1606
21
175.8125
0
LINE
8
top_outsideCutPath
10
1606
20
175.8125
11
1606
21
230.1875
0
LINE
8
top_outsideCutPath
10
1606
20
230.1875
11
1601
21
230.1875
0
LINE
8
top_outsideCutPath
10
1601
20
230.1875
11
1601
21
284.5625
0
LINE
8
top_outsideCutPath
10
1601
20
284.5625
11
1606
21
284.5625
0
LINE
8
top_outsideCutPath
10
1606
20
284.5625
11
1606
21
338.9375
0
LINE
8
top_outsideCutPath
10
1606
20
338.9375
11
1601
21
338.9375
0
LINE
8
top_outsideCutPath
10
1601
20
338.9375
11
1601
21
393.3125
0
LINE
8
top_outsideCutPath
10
1601
20
393.3125
11
1601
21
398
0
LINE
8
top_outsideCutPath
10
1601
20
398
11
1550.6875
21
398
0
LINE
8
top_outsideCutPath
10
1550.6875
20
398
11
1550.6875
21
403
0
LINE
8
top_outsideCutPath
10
1550.6875
20
403
11
1496.3125
21
403
0
LINE
8
top_outsideCutPath
10
1496.3125
20
403
11
1496.3125
21
398
0
LINE
8
top_outsideCutPath
10
1496.3125
20
398
11
1441.9375
21
398
0
LINE
8
top_outsideCutPath
10
1441.9375
20
398
11
1441.9375
21
403
0
LINE
8
top_outsideCutPath
10
1441.9375
20
403
11
1387.5625
21
403
0
LINE
8
top_outsideCutPath
10
1387.5625
20
403
11
1387.5625
21
398
0
LINE
8
top_outsideCutPath
10
1387.5625
20
398
11
1333.1875
21
398
0
LINE
8
top_outsideCutPath
10
1333.1875
20
398
11
1333.1875
21
403
0
LINE
8
top_outsideCutPath
10
1333.1875
20
403
11
1278.8125
21
403
0
LINE
8
top_outsideCutPath
10
1278.8125
20
403
11
1278.8125
21
398
0
LINE
8
top_outsideCutPath
10
1278.8125
20
398
11
1224.4375
21
398
0
LINE
8
top_outsideCutPath
10
1224.4375
20
398
11
1224.4375
21
403
0
LINE
8
top_outsideCutPath
10
1224.4375
20
403
11
1170.0625
21
403
0
LINE
8
top_outsideCutPath
10
1170.0625
20
403
11
1170.0625
21
398
0
LINE
8
top_outsideCutPath
10
1170.0625
20
398
11
1115.6875
21
398
0
LINE
8
top_outsideCutPath
10
1115.6875
20
398
11
1115.6875
21
403
0
LINE
8
top_outsideCutPath
10
1115.6875
20
403
11
1061.3125
21
403
0
LINE
8
top_outsideCutPath
10
1061.3125
20
403
11
1061.3125
21
398
0
LINE
8
top_outsideCutPath
10
1061.3125
20
398
11
1011
21
398
0
LINE
8
back_outsideCutPath
10
0
20
806
11
0
21
741.9375
0
LINE
8
back_outsideCutPath
10
0
20
741.9375
11
5
21
741.9375
0
LINE
8
back_outsideCutPath
10
5
20
741.9375
11
5
21
687.5625
0
LINE
8
back_outsideCutPath
10
5
20
687.5625
11
0
21
687.5625
0
LINE
8
back_outsideCutPath
10
0
20
687.5625
11
0
21
633.1875
0
LINE
8
back_outsideCutPath
10
0
20
633.1875
11
5
21
633.1875
0
LINE
8
back_outsideCutPath
10
5
20
633.1875
11
5
21
578.8125
0
LINE
8
back_outsideCutPath
10
5
20
578.8125
11
0
21
578.8125
0
LINE
8
back_outsideCutPath
10
0
20
578.8125
11
0
21
524.4375
0
LINE
8
back_outsideCutPath
10
0
20
524.4375
11
5
21
524.4375
0
LINE
8
back_outsideCutPath
10
5
20
524.4375
11
5
21
470.0625
0
LINE
8
back_outsideCutPath
10
5
20
470.0625
11
0
21
470.0625
0
LINE
8
back_outsideCutPath
10
0
20
470.0625
11
0
21
415.6875
0
LINE
8
back_outsideCutPath
10
0
20
415.6875
11
0
21
406
0
LINE
8
back_outsideCutPath
10
0
20
406
11
55.3125
21
406
0
LINE
8
back_outsideCutPath
10
55.3125
20
406
11
55.3125
21
411
0
LINE
8
back_outsideCutPath
10
55.3125
20
411
11
109.6875
21
411
0
LINE
8
back_outsideCutPath
10
109.6875
20
411
11
109.6875
21
406
0
LINE
8
back_outsideCutPath
10
109.6875
20
406
11
164.0625
21
406
0
LINE
8
back_outsideCutPath
10
164.0625
20
406
11
164.0625
21
411
0
LINE
8
back_outsideCutPath
10
164.0625
20
411
11
218.4375
21
411
0
LINE
8
back_outsideCutPath
10
218.4375
20
411
11
218.4375
21
406
0
LINE
8
back_outsideCutPath
10
218.4375
20
406
11
272.8125
21
406
0
LINE
8
back_outsideCutPath
10
272.8125
20
406
11
272.8125
21
411
0
LINE
8
back_outsideCutPath
10
272.8125
20
411
11
327.1875
21
411
0
LINE
8
back_outsideCutPath
10
327.1875
20
411
11
327.1875
21
406
0
LINE
8
back_outsideCutPath
10
327.1875
20
406
11
381.5625
21
406
0
LINE
8
back_outsideCutPath
10
381.5625
20
406
11
381.5625
21
411
0
LINE
8
back_outsideCutPath
10
381.5625
20
411
11
435.9375
21
411
0
LINE
8
back_outsideCutPath
10
435.9375
20
411
11
435.9375
21
406
0
LINE
8
back_outsideCutPath
10
435.9375
20
406
11
490.3125
21
406
0
LINE
8
back_outsideCutPath
10
490.3125
20
406
11
490.3125
21
411
0
LINE
8
back_outsideCutPath
10
490.3125
20
411
11
544.6875
21
411
0
LINE
8
back_outsideCutPath
10
544.6875
20
411
11
544.6875
21
406
0
LINE
8
back_outsideCutPath
10
544.6875
20
406
11
600
21
406
0
LINE
8
back_outsideCutPath
10
600
20
406
11
600
21
470.0625
0
LINE
8
back_outsideCutPath
10
600
20
470.0625
11
595
21
470.0625
0
LINE
8
back_outsideCutPath
10
595
20
470.0625
11
595
21
524.4375
0
LINE
8
back_outsideCutPath
10
595
20
524.4375
11
600
21
524.4375
0
LINE
8
back_outsideCutPath
10
600
20
524.4375
11
600
21
578.8125
0
LINE
8
back_outsideCutPath
10
600
20
578.8125
11
595
21
578.8125
0
LINE
8
back_outsideCutPath
10
595
20
578.8125
11
595
21
633.1875
0
LINE
8
back_outsideCutPath
10
595
20
633.1875
11
600
21
633.1875
0
LINE
8
back_outsideCutPath
10
600
20
633.1875
11
600
21
687.5625
0
LINE
8
back_outsideCutPath
10
600
20
687.5625
11
595
21
687.5625
0
LINE
8
back_outsideCutPath
10
595
20
687.5625
11
595
21
741.9375
0
LINE
8
back_outsideCutPath
10
595
20
741.9375
11
600
21
741.9375
0
LINE
8
back_outsideCutPath
10
600
20
741.9375
11
600
21
796.3125
0
LINE
8
back_outsideCutPath
10
600
20
796.3125
11
600
21
806
0
LINE
8
back_outsideCutPath
10
600
20
806
11
544.6875
21
806
0
LINE
8
back_outsideCutPath
10
544.6875
20
806
11
544.6875
21
801
0
LINE
8
back_outsideCutPath
10
544.6875
20
801
11
490.3125
21
801
0
LINE
8
back_outsideCutPath
10
490.3125
20
801
11
490.3125
21
806
0
LINE
8
back_outsideCutPath
10
490.3125
20
806
11
435.9375
21
806
0
LINE
8
back_outsideCutPath
10
435.9375
20
806
11
435.9375
21
801
0
LINE
8
back_outsideCutPath
10
435.9375
20
801
11
381.5625
21
801
0
LINE
8
back_outsideCutPath
10
381.5625
20
801
11
381.5625
21
806
0
LINE
8
back_outsideCutPath
10
381.5625
20
806
11
327.1875
21
806
0
LINE
8
back_outsideCutPath
10
327.1875
20
806
11
327.1875
21
801
0
LINE
8
back_outsideCutPath
10
327.1875
20
801
11
272.8125
21
801
0
LINE
8
back_outsideCutPath
10
272.8125
20
801
11
272.8125
21
806
0
LINE
8
back_outsideCutPath
10
272.8125
20
806
11
218.4375
21
806
0
LINE
8
back_outsideCutPath
10
218.4375
20
806
11
218.4375
21
801
0
LINE
8
back_outsideCutPath
10
218.4375
20
801
11
164.0625
21
801
0
LINE
8
back_outsideCutPath
10
164.0625
20
801
11
164.0625
21
806
0
LINE
8
back_outsideCutPath
10
164.0625
20
806
11
109.6875
21
806
0
LINE
8
back_outsideCutPath
10
109.6875
20
806
11
109.6875
21
801
0
LINE
8
back_outsideCutPath
10
109.6875
20
801
11
55.3125
21
801
0
LINE
8
back_outsideCutPath
10
55.3125
20
801
11
55.3125
21
806
0
LINE
8
back_outsideCutPath
10
55.3125
20
806
11
0
21
806
0
LINE
8
right_outsideCutPath
10
608
20
806
11
608
21
741.9375
0
LINE
8
right_outsideCutPath
10
608
20
741.9375
11
603
21
741.9375
0
LINE
8
right_outsideCutPath
10
603
20
741.9375
11
603
21
687.5625
0
LINE
8
right_outsideCutPath
10
603
20
687.5625
11
608
21
687.5625
0
LINE
8
right_outsideCutPath
10
608
20
687.5625
11
608
21
633.1875
0
LINE
8
right_outsideCutPath
10
608
20
633.1875
11
603
21
633.1875
0
LINE
8
right_outsideCutPath
10
603
20
633.1875
11
603
21
578.8125
0
LINE
8
right_outsideCutPath
10
603
20
578.8125
11
608
21
578.8125
0
LINE
8
right_outsideCutPath
10
608
20
578.8125
11
608
21
524.4375
0
LINE
8
right_outsideCutPath
10
608
20
524.4375
11
603
21
524.4375
0
LINE
8
right_outsideCutPath
10
603
20
524.4375
11
603
21
470.0625
0
LINE
8
right_outsideCutPath
10
603
20
470.0625
11
608
21
470.0625
0
LINE
8
right_outsideCutPath
10
608
20
470.0625
11
608
21
415.6875
0
LINE
8
right_outsideCutPath
10
608
20
415.6875
11
608
21
406
0
LINE
8
right_outsideCutPath
10
608
20
406
11
667.0625
21
406
0
LINE
8
right_outsideCutPath
10
667.0625
20
406
11
667.0625
21
411
0
LINE
8
right_outsideCutPath
10
667.0625
20
411
11
721.4375
21
411
0
LINE
8
right_outsideCutPath
10
721.4375
20
411
11
721.4375
21
406
0
LINE
8
right_outsideCutPath
10
721.4375
20
406
11
775.8125
21
406
0
LINE
8
right_outsideCutPath
10
775.8125
20
406
11
775.8125
21
411
0
LINE
8
right_outsideCutPath
10
775.8125
20
411
11
830.1875
21
411
0
LINE
8
right_outsideCutPath
10
830.1875
20
411
11
830.1875
21
406
0
LINE
8
right_outsideCutPath
10
830.1875
20
406
11
884.5625
21
406
0
LINE
8
right_outsideCutPath
10
884.5625
20
406
11
884.5625
21
411
0
LINE
8
right_outsideCutPath
10
884.5625
20
411
11
938.9375
21
411
0
LINE
8
right_outsideCutPath
10
938.9375
20
411
11
938.9375
21
406
0
LINE
8
right_outsideCutPath
10
938.9375
20
406
11
993.3125
21
406
0
LINE
8
right_outsideCutPath
10
993.3125
20
406
11
998
21
406
0
LINE
8
right_outsideCutPath
10
998
20
406
11
998
21
470.0625
0
LINE
8
right_outsideCutPath
10
998
20
470.0625
11
1003
21
470.0625
0
LINE
8
right_outsideCutPath
10
1003
20
470.0625
11
1003
21
524.4375
0
LINE
8
right_outsideCutPath
10
1003
20
524.4375
11
998
21
524.4375
0
LINE
8
right_outsideCutPath
10
998
20
524.4375
11
998
21
578.8125
0
LINE
8
right_outsideCutPath
10
998
20
578.8125
11
1003
21
578.8125
0
LINE
8
right_outsideCutPath
10
1003
20
578.8125
11
1003
21
633.1875
0
LINE
8
right_outsideCutPath
10
1003
20
633.1875
11
998
21
633.1875
0
LINE
8
right_outsideCutPath
10
998
20
633.1875
11
998
21
687.5625
0
LINE
8
right_outsideCutPath
10
998
20
687.5625
11
1003
21
687.5625
0
LINE
8
right_outsideCutPath
10
1003
20
687.5625
11
1003
21
741.9375
0
LINE
8
right_outsideCutPath
10
1003
20
741.9375
11
998
21
741.9375
0
LINE
8
right_outsideCutPath
10
998
20
741.9375
11
998
21
796.3125
0
LINE
8
right_outsideCutPath
10
998
20
796.3125
11
998
21
806
0
LINE
8
right_outsideCutPath
10
998
20
806
11
938.9375
21
806
0
LINE
8
right_outsideCutPath
10
938.9375
20
806
11
938.9375
21
801
0
LINE
8
right_outsideCutPath
10
938.9375
20
801
11
884.5625
21
801
0
LINE
8
right_outsideCutPath
10
884.5625
20
801
11
884.5625
21
806
0
LINE
8
right_outsideCutPath
10
884.5625
20
806
11
830.1875
21
806
0
LINE
8
right_outsideCutPath
10
830.1875
20
806
11
830.1875
21
801
0
LINE
8
right_outsideCutPath
10
830.1875
20
801
11
775.8125
21
801
0
LINE
8
right_outsideCutPath
10
775.8125
20
801
11
775.8125
21
806
0
LINE
8
right_outsideCutPath
10
775.8125
20
806
11
721.4375
21
806
0
LINE
8
right_outsideCutPath
10
721.4375
20
806
11
721.4375
21
801
0
LINE
8
right_outsideCutPath
10
721.4375
20
801
11
667.0625
21
801
0
LINE
8
right_outsideCutPath
10
667.0625
20
801
11
667.0625
21
806
0
LINE
8
right_outsideCutPath
10
667.0625
20
806
11
612.6875
21
806
0
LINE
8
right_outsideCutPath
10
612.6875
20
806
11
608
21
806
0
LINE
8
bottom_outsideCutPath
10
1011
20
801
11
1011
21
741.9375
0
LINE
8
bottom_outsideCutPath
10
1011
20
741.9375
11
1006
21
741.9375
0
LINE
8
bottom_outsideCutPath
10
1006
20
741.9375
11
1006
21
687.5625
0
LINE
8
bottom_outsideCutPath
10
1006
20
687.5625
11
1011
21
687.5625
0
LINE
8
bottom_outsideCutPath
10
1011
20
687.5625
11
1011
21
633.1875
0
LINE
8
bottom_outsideCutPath
10
1011
20
633.1875
11
1006
21
633.1875
0
LINE
8
bottom_outsideCutPath
10
1006
20
633.1875
11
1006
21
578.8125
0
LINE
8
bottom_outsideCutPath
10
1006
20
578.8125
11
1011
21
578.8125
0
LINE
8
bottom_outsideCutPath
10
1011
20
578.8125
11
1011
21
524.4375
0
LINE
8
bottom_outsideCutPath
10
1011
20
524.4375
11
1006
21
524.4375
0
LINE
8
bottom_outsideCutPath
10
1006
20
524.4375
11
1006
21
470.0625
0
LINE
8
bottom_outsideCutPath
10
1006
20
470.0625
11
1011
21
470.0625
0
LINE
8
bottom_outsideCutPath
10
1011
20
470.0625
11
1011
21
415.6875
0
LINE
8
bottom_outsideCutPath
10
1011
20
415.6875
11
1011
21
411
0
LINE
8
bottom_outsideCutPath
10
1011
20
411
11
1061.3125
21
411
0
LINE
8
bottom_outsideCutPath
10
1061.3125
20
411
11
1061.3125
21
406
0
LINE
8
bottom_outsideCutPath
10
1061.3125
20
406
11
1115.6875
21
406
0
LINE
8
bottom_outsideCutPath
10
1115.6875
20
406
11
1115.6875
21
411
0
LINE
8
bottom_outsideCutPath
10
1115.6875
20
411
11
1170.0625
21
411
0
LINE
8
bottom_outsideCutPath
10
1170.0625
20
411
11
1170.0625
21
406
0
LINE
8
bottom_outsideCutPath
10
1170.0625
20
406
11
1224.4375
21
406
0
LINE
8
bottom_outsideCutPath
10
1224.4375
20
406
11
1224.4375
21
411
0
LINE
8
bottom_outsideCutPath
10
1224.4375
20
411
11
1278.8125
21
411
0
LINE
8
bottom_outsideCutPath
10
1278.8125
20
411
11
1278.8125
21
406
0
LINE
8
bottom_outsideCutPath
10
1278.8125
20
406
11
1333.1875
21
406
0
LINE
8
bottom_outsideCutPath
10
1333.1875
20
406
11
1333.1875
21
411
0
LINE
8
bottom_outsideCutPath
10
1333.1875
20
411
11
1387.5625
21
411
0
LINE
8
bottom_outsideCutPath
10
1387.5625
20
411
11
1387.5625
21
406
0
LINE
8
bottom_outsideCutPath
10
1387.5625
20
406
11
1441.9375
21
406
0
LINE
8
bottom_outsideCutPath
10
1441.9375
20
406
11
1441.9375
21
411
0
LINE
8
bottom_outsideCutPath
10
1441.9375
20
411
11
1496.3125
21
411
0
LINE
8
bottom_outsideCutPath
10
1496.3125
20
411
11
1496.3125
21
406
0
LINE
8
bottom_outsideCutPath
10
1496.3125
20
406
11
1550.6875
21
406
0
LINE
8
bottom_outsideCutPath
10
1550.6875
20
406
11
1550.6875
21
411
0
LINE
8
bottom_outsideCutPath
10
1550.6875
20
411
11
1601
21
411
0
LINE
8
bottom_outsideCutPath
10
1601
20
411
11
1601
21
470.0625
0
LINE
8
bottom_outsideCutPath
10
1601
20
470.0625
11
1606
21
470.0625
0
LINE
8
bottom_outsideCutPath
10
1606
20
470.0625
11
1606
21
524.4375
0
LINE
8
bottom_outsideCutPath
10
1606
20
524.4375
11
1601
21
524.4375
0
LINE
8
bottom_outsideCutPath
10
1601
20
524.4375
11
1601
21
578.8125
0
LINE
8
bottom_outsideCutPath
10
1601
20
578.8125
11
1606
21
578.8125
0
LINE
8
bottom_outsideCutPath
10
1606
20
578.8125
11
1606
21
633.1875
0
LINE
8
bottom_outsideCutPath
10
1606
20
633.1875
11
1601
21
633.1875
0
LINE
8
bottom_outsideCutPath
10
1601
20
633.1875
11
1601
21
687.5625
0
LINE
8
bottom_outsideCutPath
10
1601
20
687.5625
11
1606
21
687.5625
0
LINE
8
bottom_outsideCutPath
10
1606
20
687.5625
11
1606
21
741.9375
0
LINE
8
bottom_outsideCutPath
10
1606
20
741.9375
11
1601
21
741.9375
0
LINE
8
bottom_outsideCutPath
10
1601
20
741.9375
11
1601
21
796.3125
0
LINE
8
bottom_outsideCutPath
10
1601
20
796.3125
11
1601
21
801
0
LINE
8
bottom_outsideCutPath
10
1601
20
801
11
1550.6875
21
801
0
LINE
8
bottom_outsideCutPath
10
1550.6875
20
801
11
1550.6875
21
806
0
LINE
8
bottom_outsideCutPath
10
1550.6875
20
806
11
1496.3125
21
806
0
LINE
8
bottom_outsideCutPath
10
1496.3125
20
806
11
1496.3125
21
801
0
LINE
8
bottom_outsideCutPath
10
1496.3125
20
801
11
1441.9375
21
801
0
LINE
8
bottom_outsideCutPath
10
1441.9375
20
801
11
1441.9375
21
806
0
LINE
8
bottom_outsideCutPath
10
1441.9375
20
806
11
1387.5625
21
806
0
LINE
8
bottom_outsideCutPath
10
1387.5625
20
806
11
1387.5625
21
801
0
LINE
8
bottom_outsideCutPath
10
1387.5625
20
801
11
1333.1875
21
801
0
LINE
8
bottom_outsideCutPath
10
1333.1875
20
801
11
1333.1875
21
806
0
LINE
8
bottom_outsideCutPath
10
1333.1875
20
806
11
1278.8125
21
806
0
LINE
8
bottom_outsideCutPath
10
1278.8125
20
806
11
1278.8125
21
801
0
LINE
8
bottom_outsideCutPath
10
1278.8125
20
801
11
1224.4375
21
801
0
LINE
8
bottom_outsideCutPath
10
1224.4375
20
801
11
1224.4375
21
806
0
LINE
8
bottom_outsideCutPath
10
1224.4375
20
806
11
1170.0625
21
806
0
LINE
8
bottom_outsideCutPath
10
1170.0625
20
806
11
1170.0625
21
801
0
LINE
8
bottom_outsideCutPath
10
1170.0625
20
801
11
1115.6875
21
801
0
LINE
8
bottom_outsideCutPath
10
1115.6875
20
801
11
1115.6875
21
806
0
LINE
8
bottom_outsideCutPath
10
1115.6875
20
806
11
1061.3125
21
806
0
LINE
8
bottom_outsideCutPath
10
1061.3125
20
806
11
1061.3125
21
801
0
LINE
8
bottom_outsideCutPath
10
1061.3125
20
801
11
1011
21
801
0
ENDSEC
0
EOF